<svg width="320" height="1440" viewBox="0 0 320 1440" fill="none" xmlns="http://www.w3.org/2000/svg">
<g clip-path="url(#clip0)">
<path d="M63.9999 -9.62338e-06L90.6999 34.3C117 68.6 171 137 181.3 206C192 274.3 160 343 165.3 411C171 480 213 549 245.3 617C277 685.7 299 754 272 823C245 891.4 171 960 165.3 1029C160 1097.1 224 1166 208 1234C192 1302.9 95.9999 1371 47.9999 1406L-0.00012398 1440L-0.00012248 1405.7C-0.000120981 1371.4 -0.000117991 1303 -0.000114975 1234C-0.00011199 1165.7 -0.000108987 1097 -0.000106014 1029C-0.000102998 960 -9.9982e-05 891 -9.70096e-05 823C-9.40067e-05 754.3 -9.10212e-05 686 -8.80051e-05 617C-8.50152e-05 548.6 -8.20166e-05 480 -7.90005e-05 411C-7.60238e-05 342.9 -7.30121e-05 274 -7.00397e-05 206C-6.7028e-05 137.1 -6.40512e-05 69 -6.25213e-05 34L-6.10352e-05 -1.24209e-05L63.9999 -9.62338e-06Z" fill="#187A74"/>
</g>
<defs>
<clipPath id="clip0">
<rect width="1440" height="320" fill="white" transform="translate(320) rotate(90)"/>
</clipPath>
</defs>
</svg>
